<svg xmlns="http://www.w3.org/2000/svg" viewBox="0 0 310 72" width="310" height="72" role="img" aria-label="Zen Flow">
<title>Zen Flow</title>
<g transform="translate(4 4) scale(0.2133)">
<rect x="0" y="0" width="100" height="100" rx="32" ry="32" fill="#bbbbbb"></rect>
<rect x="200" y="0" width="100" height="100" rx="32" ry="32" fill="#111111"></rect>
<rect x="200" y="200" width="100" height="100" rx="32" ry="32" fill="#888888"></rect>
<g fill="#555555">
<path d="M-42 -31.5 C-27.45 -24.3 -12.9 -14.4 0 -14.4 C12.9 -14.4 27.45 -24.3 42 -31.5 L42 31.5 C27.45 24.3 12.9 14.4 0 14.4 C-12.9 14.4 -27.45 24.3 -42 31.5 Z" transform="translate(100 200) rotate(-45)"></path>
<rect x="100" y="100" width="100" height="100" rx="32" ry="32"></rect>
<rect x="0" y="200" width="100" height="100" rx="32" ry="32"></rect>
</g>
</g>
<rect x="84" y="13.6" width="1" height="44.8" fill="#d0d0d0"></rect>
<text x="100" y="47" font-family="Fraunces, Georgia, serif" font-size="34" font-weight="500" fill="#111111" letter-spacing="-0.5">Zen Flow</text>
</svg>
